<svg xmlns="http://www.w3.org/2000/svg" viewBox="0 0 456.512 456.512"><path d="M252.5 83.052c-46.715-46.714-122.723-46.713-169.436 0-22.629 22.629-35.091 52.715-35.091 84.718 0 32.002 12.462 62.088 35.091 84.717 23.359 23.36 54.033 35.035 84.718 35.035 30.677 0 61.364-11.681 84.718-35.035 22.629-22.629 35.091-52.715 35.091-84.717 0-32.003-12.462-62.09-35.091-84.718zm-11.314 158.121c-40.474 40.475-106.333 40.474-146.808 0-19.607-19.607-30.405-45.676-30.405-73.404 0-27.729 10.798-53.797 30.405-73.404 20.238-20.237 46.821-30.356 73.404-30.356s53.167 10.119 73.404 30.356c19.607 19.607 30.405 45.675 30.405 73.404 0 27.728-10.798 53.797-30.405 73.404z"/><path d="M167.782 73.026a8 8 0 000 16c43.419 0 78.744 35.324 78.744 78.744a8 8 0 0016 0c0-52.243-42.502-94.744-94.744-94.744z"/><path d="M440.692 364.232L318.365 241.906c11.238-22.774 17.186-47.997 17.186-74.136 0-44.813-17.451-86.943-49.139-118.631C254.725 17.451 212.595 0 167.782 0S80.839 17.451 49.152 49.138C17.464 80.826.013 122.956.013 167.769s17.451 86.943 49.139 118.63c31.687 31.688 73.817 49.139 118.63 49.139 26.14 0 51.362-5.948 74.136-17.185l122.326 122.326c10.21 10.21 23.785 15.833 38.225 15.833 14.438 0 28.014-5.623 38.224-15.833 21.075-21.077 21.075-55.37-.001-76.447zM70.365 265.187c-26.021-26.021-40.352-60.618-40.352-97.417 0-36.8 14.331-71.396 40.352-97.418C96.386 44.331 130.982 30 167.782 30c36.799 0 71.396 14.331 97.417 40.352 26.021 26.021 40.352 60.618 40.352 97.417s-14.33 71.396-40.352 97.417c-26.021 26.021-60.618 40.352-97.417 40.352-36.8 0-71.396-14.33-97.417-40.351zm349.114 154.279c-4.544 4.544-10.585 7.046-17.011 7.046s-12.467-2.502-17.011-7.046L268.193 302.202a170.162 170.162 0 0034.021-34.021l117.264 117.264c9.38 9.379 9.38 24.642.001 34.021z"/></svg>